{
  "accessors": [
    {
      "bufferView": 1,
      "componentType": 5126,
      "count": 65532,
      "max": [
        0.18892523646354675,
        0.12516944110393524,
        1.650368332862854
      ],
      "min": [
        -0.19398275017738342,
        -0.19571217894554138,
        0.10667230188846588
      ],
      "type": "VEC3"
    },
    {
      "bufferView": 1,
      "byteOffset": 786384,
      "componentType": 5126,
      "count": 65532,
      "max": [
        0.9999799132347107,
        0.9999964833259583,
        0.9999860525131226
      ],
      "min": [
        -0.9999905824661255,
        -0.9999902844429016,
        -0.9999672174453735
      ],
      "type": "VEC3"
    },
    {
      "bufferView": 0,
      "componentType": 5125,
      "count": 312834,
      "type": "SCALAR"
    },
    {
      "bufferView": 1,
      "byteOffset": 1572768,
      "componentType": 5126,
      "count": 65532,
      "max": [
        0.6685957908630371,
        0.1556435376405716,
        1.6487927436828613
      ],
      "min": [
        -0.4658864438533783,
        -0.2518991231918335,
        -0.005764869973063469
      ],
      "type": "VEC3"
    },
    {
      "bufferView": 1,
      "byteOffset": 2359152,
      "componentType": 5126,
      "count": 65532,
      "max": [
        0.9999828934669495,
        0.9999521970748901,
        0.9999747276306152
      ],
      "min": [
        -0.9999691843986511,
        -0.9999644160270691,
        -0.9999560713768005
      ],
      "type": "VEC3"
    },
    {
      "bufferView": 0,
      "byteOffset": 1251336,
      "componentType": 5125,
      "count": 311475,
      "type": "SCALAR"
    },
    {
      "bufferView": 1,
      "byteOffset": 3145536,
      "componentType": 5126,
      "count": 65532,
      "max": [
        0.5686357617378235,
        0.09324810653924942,
        1.6511116027832031
      ],
      "min": [
        -0.4001472294330597,
        -0.22892102599143982,
        -0.0032600800041109324
      ],
      "type": "VEC3"
    },
    {
      "bufferView": 1,
      "byteOffset": 3931920,
      "componentType": 5126,
      "count": 65532,
      "max": [
        0.9999997615814209,
        0.999986469745636,
        0.9999933242797852
      ],
      "min": [
        -0.9999940395355225,
        -0.9999844431877136,
        -0.9998128414154053
      ],
      "type": "VEC3"
    },
    {
      "bufferView": 0,
      "byteOffset": 2497236,
      "componentType": 5125,
      "count": 312870,
      "type": "SCALAR"
    },
    {
      "bufferView": 1,
      "byteOffset": 4718304,
      "componentType": 5126,
      "count": 65532,
      "max": [
        0.7176418304443359,
        0.09301003068685532,
        1.673257827758789
      ],
      "min": [
        -0.467422217130661,
        -0.2520867884159088,
        -0.005211249925196171
      ],
      "type": "VEC3"
    },
    {
      "bufferView": 1,
      "byteOffset": 5504688,
      "componentType": 5126,
      "count": 65532,
      "max": [
        0.9999179244041443,
        0.9999588131904602,
        0.9999791979789734
      ],
      "min": [
        -0.9999381899833679,
        -0.9999844431877136,
        -0.9999465346336365
      ],
      "type": "VEC3"
    },
    {
      "bufferView": 0,
      "byteOffset": 3748716,
      "componentType": 5125,
      "count": 312225,
      "type": "SCALAR"
    },
    {
      "bufferView": 1,
      "byteOffset": 6291072,
      "componentType": 5126,
      "count": 65532,
      "max": [
        0.5939925909042358,
        0.09978991746902466,
        1.6877542734146118
      ],
      "min": [
        -0.4577452540397644,
        -0.23813249170780182,
        -0.005711679812520742
      ],
      "type": "VEC3"
    },
    {
      "bufferView": 1,
      "byteOffset": 7077456,
      "componentType": 5126,
      "count": 65532,
      "max": [
        0.9999799132347107,
        0.9999693632125854,
        0.999993622303009
      ],
      "min": [
        -0.9999966025352478,
        -0.9999772310256958,
        -0.9999682307243347
      ],
      "type": "VEC3"
    },
    {
      "bufferView": 0,
      "byteOffset": 4997616,
      "componentType": 5125,
      "count": 320904,
      "type": "SCALAR"
    },
    {
      "bufferView": 1,
      "byteOffset": 7863840,
      "componentType": 5126,
      "count": 65532,
      "max": [
        0.6877630949020386,
        0.16067704558372498,
        1.688457727432251
      ],
      "min": [
        -0.4654988944530487,
        -0.2429896742105484,
        -0.004783039912581444
      ],
      "type": "VEC3"
    },
    {
      "bufferView": 1,
      "byteOffset": 8650224,
      "componentType": 5126,
      "count": 65532,
      "max": [
        0.9999967813491821,
        0.9999920725822449,
        0.9999871850013733
      ],
      "min": [
        -0.9999945759773254,
        -0.9999916553497314,
        -0.9997120499610901
      ],
      "type": "VEC3"
    },
    {
      "bufferView": 0,
      "byteOffset": 6281232,
      "componentType": 5125,
      "count": 314925,
      "type": "SCALAR"
    },
    {
      "bufferView": 1,
      "byteOffset": 9436608,
      "componentType": 5126,
      "count": 65532,
      "max": [
        0.7157801389694214,
        0.1538848727941513,
        1.6905549764633179
      ],
      "min": [
        -0.43302011489868164,
        -0.21606577932834625,
        -0.005310699809342623
      ],
      "type": "VEC3"
    },
    {
      "bufferView": 1,
      "byteOffset": 10222992,
      "componentType": 5126,
      "count": 65532,
      "max": [
        0.9999927878379822,
        0.9999922513961792,
        0.9999871850013733
      ],
      "min": [
        -0.9999940395355225,
        -0.9999916553497314,
        -0.9999143481254578
      ],
      "type": "VEC3"
    },
    {
      "bufferView": 0,
      "byteOffset": 7540932,
      "componentType": 5125,
      "count": 316062,
      "type": "SCALAR"
    },
    {
      "bufferView": 1,
      "byteOffset": 11009376,
      "componentType": 5126,
      "count": 65532,
      "max": [
        0.6988664865493774,
        0.1318446844816208,
        1.688570499420166
      ],
      "min": [
        -0.46896064281463623,
        -0.2357940971851349,
        -0.003077029949054122
      ],
      "type": "VEC3"
    },
    {
      "bufferView": 1,
      "byteOffset": 11795760,
      "componentType": 5126,
      "count": 65532,
      "max": [
        0.9999693632125854,
        0.9999520182609558,
        0.9999644160270691
      ],
      "min": [
        -0.999907910823822,
        -0.9999889731407166,
        -0.9999715089797974
      ],
      "type": "VEC3"
    },
    {
      "bufferView": 0,
      "byteOffset": 8805180,
      "componentType": 5125,
      "count": 312159,
      "type": "SCALAR"
    },
    {
      "bufferView": 1,
      "byteOffset": 12582144,
      "componentType": 5126,
      "count": 65532,
      "max": [
        0.7101584076881409,
        0.15286500751972198,
        1.6877124309539795
      ],
      "min": [
        -0.43160802125930786,
        -0.24238620698451996,
        -0.004670809954404831
      ],
      "type": "VEC3"
    },
    {
      "bufferView": 1,
      "byteOffset": 13368528,
      "componentType": 5126,
      "count": 65532,
      "max": [
        0.9999997615814209,
        0.9999964833259583,
        0.9999340176582336
      ],
      "min": [
        -0.9999991059303284,
        -0.9999861717224121,
        -0.9999185800552368
      ],
      "type": "VEC3"
    },
    {
      "bufferView": 0,
      "byteOffset": 10053816,
      "componentType": 5125,
      "count": 310620,
      "type": "SCALAR"
    },
    {
      "bufferView": 1,
      "byteOffset": 14154912,
      "componentType": 5126,
      "count": 65532,
      "max": [
        0.7176429629325867,
        0.16028018295764923,
        1.687788724899292
      ],
      "min": [
        -0.4622606635093689,
        -0.24279159307479858,
        -0.005764869973063469
      ],
      "type": "VEC3"
    },
    {
      "bufferView": 1,
      "byteOffset": 14941296,
      "componentType": 5126,
      "count": 65532,
      "max": [
        0.9999964237213135,
        0.9999720454216003,
        0.9999586939811707
      ],
      "min": [
        -0.9999987483024597,
        -0.9999982714653015,
        -0.999980092048645
      ],
      "type": "VEC3"
    },
    {
      "bufferView": 0,
      "byteOffset": 11296296,
      "componentType": 5125,
      "count": 294960,
      "type": "SCALAR"
    },
    {
      "bufferView": 1,
      "byteOffset": 15727680,
      "componentType": 5126,
      "count": 65532,
      "max": [
        0.7176560759544373,
        0.15997673571109772,
        1.6893056631088257
      ],
      "min": [
        -0.4689335525035858,
        -0.2513467073440552,
        -0.005646300036460161
      ],
      "type": "VEC3"
    },
    {
      "bufferView": 1,
      "byteOffset": 16514064,
      "componentType": 5126,
      "count": 65532,
      "max": [
        0.9999861717224121,
        0.9999494552612305,
        0.9999789595603943
      ],
      "min": [
        -0.9999966025352478,
        -0.9999803304672241,
        -0.9999805092811584
      ],
      "type": "VEC3"
    },
    {
      "bufferView": 0,
      "byteOffset": 12476136,
      "componentType": 5125,
      "count": 264204,
      "type": "SCALAR"
    },
    {
      "bufferView": 1,
      "byteOffset": 17300448,
      "componentType": 5126,
      "count": 65534,
      "max": [
        0.7322880625724792,
        0.16067704558372498,
        1.7491191625595093
      ],
      "min": [
        -0.4883652925491333,
        -0.24905426800251007,
        -0.005642440170049667
      ],
      "type": "VEC3"
    },
    {
      "bufferView": 1,
      "byteOffset": 18086856,
      "componentType": 5126,
      "count": 65534,
      "max": [
        0.9999599456787109,
        0.9999828934669495,
        0.9999507665634155
      ],
      "min": [
        -0.9999381899833679,
        -0.9999844431877136,
        -0.9999672174453735
      ],
      "type": "VEC3"
    },
    {
      "bufferView": 0,
      "byteOffset": 13532952,
      "componentType": 5125,
      "count": 189324,
      "type": "SCALAR"
    },
    {
      "bufferView": 1,
      "byteOffset": 18873264,
      "componentType": 5126,
      "count": 16310,
      "max": [
        0.7149182558059692,
        0.15799346566200256,
        1.6905549764633179
      ],
      "min": [
        -0.46896064281463623,
        -0.2423291653394699,
        -0.005219379905611277
      ],
      "type": "VEC3"
    },
    {
      "bufferView": 1,
      "byteOffset": 19068984,
      "componentType": 5126,
      "count": 16310,
      "max": [
        0.9997875094413757,
        0.9999356269836426,
        0.999993622303009
      ],
      "min": [
        -0.9999862313270569,
        -0.9999186992645264,
        -0.9996312260627747
      ],
      "type": "VEC3"
    },
    {
      "bufferView": 0,
      "byteOffset": 14290248,
      "componentType": 5125,
      "count": 30390,
      "type": "SCALAR"
    }
  ],
  "asset": {
    "extras": {
      "author": "pangeni (https://sketchfab.com/pangeni)",
      "license": "CC-BY-4.0 (http://creativecommons.org/licenses/by/4.0/)",
      "source": "https://sketchfab.com/3d-models/pose-08-a7704b43d4e14637af58d47f04bdfc04",
      "title": "Pose 08"
    },
    "generator": "Sketchfab-12.97.0",
    "version": "2.0"
  },
  "bufferViews": [
    {
      "buffer": 0,
      "byteLength": 14411808,
      "name": "floatBufferViews",
      "target": 34963
    },
    {
      "buffer": 0,
      "byteLength": 19264704,
      "byteOffset": 14411808,
      "byteStride": 12,
      "name": "floatBufferViews",
      "target": 34962
    }
  ],
  "buffers": [
    {
      "byteLength": 33676512,
      "uri": "scene.bin"
    }
  ],
  "materials": [
    {
      "doubleSided": true,
      "name": "material_0",
      "pbrMetallicRoughness": {
        "metallicFactor": 0.0,
        "roughnessFactor": 0.6
      }
    }
  ],
  "meshes": [
    {
      "name": "Object_0",
      "primitives": [
        {
          "attributes": {
            "NORMAL": 1,
            "POSITION": 0
          },
          "indices": 2,
          "material": 0,
          "mode": 4
        }
      ]
    },
    {
      "name": "Object_1",
      "primitives": [
        {
          "attributes": {
            "NORMAL": 4,
            "POSITION": 3
          },
          "indices": 5,
          "material": 0,
          "mode": 4
        }
      ]
    },
    {
      "name": "Object_2",
      "primitives": [
        {
          "attributes": {
            "NORMAL": 7,
            "POSITION": 6
          },
          "indices": 8,
          "material": 0,
          "mode": 4
        }
      ]
    },
    {
      "name": "Object_3",
      "primitives": [
        {
          "attributes": {
            "NORMAL": 10,
            "POSITION": 9
          },
          "indices": 11,
          "material": 0,
          "mode": 4
        }
      ]
    },
    {
      "name": "Object_4",
      "primitives": [
        {
          "attributes": {
            "NORMAL": 13,
            "POSITION": 12
          },
          "indices": 14,
          "material": 0,
          "mode": 4
        }
      ]
    },
    {
      "name": "Object_5",
      "primitives": [
        {
          "attributes": {
            "NORMAL": 16,
            "POSITION": 15
          },
          "indices": 17,
          "material": 0,
          "mode": 4
        }
      ]
    },
    {
      "name": "Object_6",
      "primitives": [
        {
          "attributes": {
            "NORMAL": 19,
            "POSITION": 18
          },
          "indices": 20,
          "material": 0,
          "mode": 4
        }
      ]
    },
    {
      "name": "Object_7",
      "primitives": [
        {
          "attributes": {
            "NORMAL": 22,
            "POSITION": 21
          },
          "indices": 23,
          "material": 0,
          "mode": 4
        }
      ]
    },
    {
      "name": "Object_8",
      "primitives": [
        {
          "attributes": {
            "NORMAL": 25,
            "POSITION": 24
          },
          "indices": 26,
          "material": 0,
          "mode": 4
        }
      ]
    },
    {
      "name": "Object_9",
      "primitives": [
        {
          "attributes": {
            "NORMAL": 28,
            "POSITION": 27
          },
          "indices": 29,
          "material": 0,
          "mode": 4
        }
      ]
    },
    {
      "name": "Object_10",
      "primitives": [
        {
          "attributes": {
            "NORMAL": 31,
            "POSITION": 30
          },
          "indices": 32,
          "material": 0,
          "mode": 4
        }
      ]
    },
    {
      "name": "Object_11",
      "primitives": [
        {
          "attributes": {
            "NORMAL": 34,
            "POSITION": 33
          },
          "indices": 35,
          "material": 0,
          "mode": 4
        }
      ]
    },
    {
      "name": "Object_12",
      "primitives": [
        {
          "attributes": {
            "NORMAL": 37,
            "POSITION": 36
          },
          "indices": 38,
          "material": 0,
          "mode": 4
        }
      ]
    }
  ],
  "nodes": [
    {
      "children": [
        1
      ],
      "matrix": [
        1.0,
        0.0,
        0.0,
        0.0,
        0.0,
        2.220446049250313e-16,
        -1.0,
        0.0,
        0.0,
        1.0,
        2.220446049250313e-16,
        0.0,
        0.0,
        0.0,
        0.0,
        1.0
      ],
      "name": "Sketchfab_model"
    },
    {
      "children": [
        2,
        3,
        4,
        5,
        6,
        7,
        8,
        9,
        10,
        11,
        12,
        13,
        14
      ],
      "name": "Pose_08.obj.cleaner.materialmerger.gles"
    },
    {
      "mesh": 0,
      "name": "Object_2"
    },
    {
      "mesh": 1,
      "name": "Object_3"
    },
    {
      "mesh": 2,
      "name": "Object_4"
    },
    {
      "mesh": 3,
      "name": "Object_5"
    },
    {
      "mesh": 4,
      "name": "Object_6"
    },
    {
      "mesh": 5,
      "name": "Object_7"
    },
    {
      "mesh": 6,
      "name": "Object_8"
    },
    {
      "mesh": 7,
      "name": "Object_9"
    },
    {
      "mesh": 8,
      "name": "Object_10"
    },
    {
      "mesh": 9,
      "name": "Object_11"
    },
    {
      "mesh": 10,
      "name": "Object_12"
    },
    {
      "mesh": 11,
      "name": "Object_13"
    },
    {
      "mesh": 12,
      "name": "Object_14"
    }
  ],
  "scene": 0,
  "scenes": [
    {
      "name": "Sketchfab_Scene",
      "nodes": [
        0
      ]
    }
  ]
}
